<svg height="480pt" viewBox="0 0 480 480.02214" width="480pt" xmlns="http://www.w3.org/2000/svg"><path d="m120.011719 32h320v416h-320zm0 0" fill="#ccdde6"/><path d="m110.203125 128c39.765625 0 72 32.234375 72 72-39.765625 0-72-32.234375-72-72zm0 0" fill="#8ac03f"/><g fill="#0093ba"><path d="m216.011719 8h128v48h-128zm0 0"/><path d="m240.011719 240h160v48h-160zm0 0"/><path d="m240.011719 320h160v48h-160zm0 0"/></g><path d="m118.242188 230.910156c-29 .003906-55.511719 16.386719-68.488282 42.320313-6.40625 12.820312-9.742187 26.957031-9.742187 41.289062.003906 22.300781 4.738281 44.34375 13.886719 64.679688l27.550781 61.234375c8.632812 19.207031 27.730469 31.5625 48.785156 31.566406 5.75 0 11.464844-.925781 16.921875-2.742188l28.855469-9.617187 28.855469 9.597656c5.457031 1.824219 11.167968 2.753907 16.917968 2.761719 21.058594.007812 40.160156-12.339844 48.800782-31.542969l27.539062-61.257812c9.148438-20.335938 13.882812-42.378907 13.886719-64.679688 0-14.332031-3.335938-28.46875-9.746094-41.289062-12.972656-25.933594-39.484375-42.316407-68.488281-42.320313-17.386719.007813-34.257813 5.933594-47.832032 16.800782l-9.933593 7.929687-9.9375-7.953125c-13.574219-10.859375-30.445313-16.777344-47.832031-16.777344zm0 0" fill="#ec4042"/><path d="m17.164062 327.097656c-.769531-6.832031-1.152343-13.703125-1.152343-20.578125.023437-18.046875 4.226562-35.847656 12.28125-52 10.464843-21.019531 27.957031-37.71875 49.4375-47.199219l-6.398438-14.664062c-24.910156 10.976562-45.195312 30.320312-57.34375 54.679688-9.167969 18.382812-13.9492185 38.640624-13.9765622 59.183593-.0039063 7.484375.4179692 14.964844 1.2539062 22.402344zm0 0"/><path d="m448.011719 32c0-4.417969-3.582031-8-8-8h-88v-16c0-4.417969-3.582031-8-8-8h-128c-4.417969 0-8 3.582031-8 8v16h-88c-4.417969 0-8 3.582031-8 8v88.089844c-.609375 0-1.191407-.089844-1.808594-.089844-4.417969 0-8 3.582031-8 8-.011719 13.394531 3.363281 26.578125 9.808594 38.320312v57.023438c-29.71875 2.027344-56.136719 19.65625-69.417969 46.320312-6.941406 13.933594-10.5625 29.289063-10.582031 44.855469-.035157 23.449219 4.941406 46.632813 14.589843 68l27.554688 61.242188c12.953125 28.78125 45.59375 43.082031 75.535156 33.09375l26.320313-8.800781 26.320312 8.800781c24.78125 8.296875 52.097657-.058594 68-20.800781h169.679688c4.417969 0 8-3.582032 8-8zm-224-16h112v32h-112zm-55.9375 223.246094c-11.785157-8.582032-25.582031-13.988282-40.0625-15.695313v-36.878906c12.160156 11.285156 27.542969 18.484375 44 20.601563-2.496094 10.476562-3.816407 21.203124-3.9375 31.972656zm-49.296875-102.679688c28.519531 3.914063 50.9375 26.347656 54.832031 54.867188-28.515625-3.914063-50.9375-26.34375-54.832031-54.867188zm103.007812 327.433594c-4.894531.003906-9.753906-.785156-14.398437-2.335938l-28.855469-9.601562c-1.640625-.546875-3.414062-.546875-5.054688 0l-28.859374 9.601562c-22.148438 7.386719-46.296876-3.195312-55.878907-24.488281l-27.542969-61.230469c-8.714843-19.304687-13.210937-40.246093-13.183593-61.425781.015625-13.089843 3.058593-26 8.894531-37.71875 9.261719-18.519531 26.398438-31.863281 46.621094-36.308593 20.226562-4.441407 41.375.492187 57.546875 13.429687l9.9375 7.941406c2.921875 2.339844 7.078125 2.339844 10 0l9.933593-7.941406c16.171876-12.9375 37.324219-17.871094 57.546876-13.429687 20.226562 4.445312 37.359374 17.789062 46.621093 36.308593 5.835938 11.71875 8.878907 24.628907 8.898438 37.71875.027343 21.179688-4.46875 42.121094-13.183594 61.425781l-27.554687 61.222657c-7.363282 16.308593-23.589844 26.804687-41.488282 26.832031zm210.226563-24h-152.457031l25.863281-57.488281c9.648437-21.367188 14.625-44.546875 14.59375-67.992188-.023438-15.570312-3.644531-30.925781-10.585938-44.863281-11.097656-22.246094-31.433593-38.46875-55.589843-44.347656s-49.671876-.8125-69.753907 13.84375c.097657-12.167969 1.917969-24.257813 5.410157-35.914063.070312-.148437.09375-.308593.160156-.46875 6.148437-20.0625 17.136718-38.300781 32-53.113281l-11.3125-11.3125c-10.019532 10-18.519532 21.414062-25.226563 33.878906-9.402343-25.246094-30.851562-44.089844-57.101562-50.160156v-82.0625h80v16c0 4.417969 3.582031 8 8 8h128c4.417969 0 8-3.582031 8-8v-16h80zm0 0"/><path d="m248.011719 88h16v16h-16zm0 0"/><path d="m280.011719 88h128v16h-128zm0 0"/><path d="m248.011719 120h160v16h-160zm0 0"/><path d="m248.011719 152h160v16h-160zm0 0"/><path d="m248.011719 184h160v16h-160zm0 0"/><path d="m400.011719 232h-80v16h72v32h-56v16h64c4.417969 0 8-3.582031 8-8v-48c0-4.417969-3.582031-8-8-8zm0 0"/><path d="m400.011719 312h-64v16h56v32h-64v16h72c4.417969 0 8-3.582031 8-8v-48c0-4.417969-3.582031-8-8-8zm0 0"/><path d="m392.011719 408h16v16h-16zm0 0"/><path d="m360.011719 408h16v16h-16zm0 0"/><path d="m328.011719 408h16v16h-16zm0 0"/><path d="m464.011719 64h16v192h-16zm0 0"/><path d="m464.011719 272h16v16h-16zm0 0"/></svg>