<svg height="512pt" viewBox="0 -54 512.00028 512" width="512pt" xmlns="http://www.w3.org/2000/svg"><path d="m150.8125 255.925781h210.375v66.039063h-210.375zm0 0" fill="#3b3d4d"/><path d="m476.191406 57.375c-20.855468 59.445312-63.488281 108.636719-118.324218 138.019531h-.007813c-35.203125 18.871094-75.441406 29.570313-118.175781 29.570313-111.867188 0-206.597656-73.300782-238.832032-174.484375-4.878906-15.332031 12.214844-28.359375 25.558594-19.394531 11.878906 7.984374 24.242188 15.328124 37.019532 21.953124 52.757812 27.417969 112.691406 42.914063 176.253906 42.914063 78.15625 0 150.847656-23.4375 211.421875-63.65625zm0 0" fill="#fcb52f"/><path d="m357.859375 195.394531c-35.203125 18.871094-75.441406 29.570313-118.175781 29.570313-111.867188 0-206.597656-73.300782-238.832032-174.484375-4.878906-15.332031 12.214844-28.359375 25.558594-19.394531 11.878906 7.984374 24.242188 15.328124 37.019532 21.953124 0 30.636719 60.96875 164.203126 294.429687 142.355469zm0 0" fill="#f99830"/><path d="m512 216.4375c0 15.789062-6.40625 30.09375-16.75 40.4375-10.355469 10.355469-24.648438 16.75-40.445312 16.75h-397.613282c-31.585937 0-57.18749975-25.601562-57.18749975-57.1875zm0 0" fill="#3b3d4d"/><path d="m512 216.4375c0 15.789062-6.40625 30.09375-16.75 40.4375-10.355469 10.355469-24.648438 16.75-40.445312 16.75h-307.742188c-31.585938 0-57.1875-25.601562-57.1875-57.1875zm0 0" fill="#5c5e71"/><path d="m400.746094 304.265625h-289.496094c-11.425781 0-20.691406 9.261719-20.691406 20.691406v57.886719c0 11.429688 9.265625 20.691406 20.691406 20.691406h289.496094c11.429687 0 20.695312-9.261718 20.695312-20.691406v-57.886719c0-11.429687-9.265625-20.691406-20.695312-20.691406zm0 0" fill="#4297d0"/><path d="m323.308594 330.820312h-134.617188c-5.3125 0-9.621094 4.308594-9.621094 9.621094v26.917969c0 5.3125 4.308594 9.621094 9.621094 9.621094h134.617188c5.3125 0 9.621094-4.308594 9.621094-9.621094v-26.917969c.003906-5.3125-4.308594-9.621094-9.621094-9.621094zm0 0" fill="#ace4ea"/><path d="m451.109375 32.296875 32.296875-32.296875 28.589844 21.570312-35.804688 35.808594" fill="#5c5e71"/><path d="m229.898438 168.003906c-10.835938 0-21.539063-.679687-32.089844-2.035156-43.828125-5.640625-84.964844-23.058594-122.265625-51.777344-3.429688-2.640625-4.070313-7.5625-1.429688-10.992187 2.640625-3.429688 7.5625-4.070313 10.988281-1.429688 34.988282 26.9375 73.476563 43.292969 114.402344 48.613281 32.839844 4.269532 67.386719 1.503907 102.6875-8.222656 60.601563-16.695312 102.90625-48.519531 103.328125-48.839844 3.441407-2.617187 8.359375-1.953124 10.980469 1.492188 2.621094 3.441406 1.957031 8.355469-1.484375 10.976562-1.796875 1.371094-44.75 33.761719-108.132813 51.335938-26.113281 7.242188-51.894531 10.878906-76.984374 10.878906zm0 0" fill="#f99830"/></svg>